# xmcd
#
# Track frame offsets: 
#        150
#        11763
#        21223
#        30123
#        42910
#        55193
#        68470
#        83355
#        95015
#        107693
#        118808
#        130115
#        143390
#        156220
#        170245
#        182180
#
# Disc length: 2581 seconds
#
# Revision: 3
# Processed by: cddbd v1.5.2PL0 Copyright (c) Steve Scherf et al.
# Submitted via: ExactAudioCopyFreeDBPlugin 1.0
#
DISCID=c50a1310
DTITLE=Various Artist - Country and Western [CD3)
DYEAR=1900
DGENRE=Country
TTITLE0=Donna Fargo - The Happiest Girl In The Whole USA
TTITLE1=Lynn Anderson - Snowbird
TTITLE2=Waylon Jennings - Mean Old Greyhound Bus
TTITLE3=Dolly Parton - Little Blossom
TTITLE4=Kenny Rogers - Reuben James
TTITLE5=Lynn Anderson - Top Of The World
TTITLE6=Willie Nelson - And So Will You My Love
TTITLE7=Billie Joe Spears - A Little Kindness
TTITLE8=Lynn Anderson - I Fall To Pieces
TTITLE9=Don Williams - Storybook Children
TTITLE10=Patsy Cline - I've Loved And Lost Again
TTITLE11=Lynn Anderson - Rosegarden
TTITLE12=Kenny Rogers - Sleep Comes Easy
TTITLE13=Billie Joe Spears - Mr. Walker, It's All Over
TTITLE14=Donna Fargo - U.S. Of America
TTITLE15=Lynn Anderson - That'll BE The Day
EXTD=
EXTT0=
EXTT1=
EXTT2=
EXTT3=
EXTT4=
EXTT5=
EXTT6=
EXTT7=
EXTT8=
EXTT9=
EXTT10=
EXTT11=
EXTT12=
EXTT13=
EXTT14=
EXTT15=
PLAYORDER=
